<?xml version="1.0" encoding="utf-8"?>
<!-- Svg Vector Icons : http://www.onlinewebfonts.com/icon -->
<!DOCTYPE svg PUBLIC "-//W3C//DTD SVG 1.1//EN" "http://www.w3.org/Graphics/SVG/1.1/DTD/svg11.dtd">
<svg version="1.1" xmlns="http://www.w3.org/2000/svg" xmlns:xlink="http://www.w3.org/1999/xlink" x="0px" y="0px" viewBox="0 0 256 256" enable-background="new 0 0 256 256" xml:space="preserve">
<metadata> Svg Vector Icons : http://www.onlinewebfonts.com/icon </metadata>
<g><g><path fill="#000000" d="M100,83.1c0-9.3-7.6-16.9-16.9-16.9c-9.3,0-16.9,7.6-16.9,16.9c0,9.3,7.6,16.9,16.9,16.9C92.4,100,100,92.4,100,83.1L100,83.1z"/><path fill="#000000" d="M100,83.1"/><path fill="#000000" d="M156.1,169.3H170v-13.9c0-10.3,6.2-19.1,15-23.1l-2.3-8v-0.6h0l-15.2-46.1l-53.3,68.7l-14.3-24.2l-56.6,57.1h83.4h9.4C140.6,173.2,147.9,169.3,156.1,169.3z"/><path fill="#000000" d="M246,47.8C246,27,229,10,208.2,10H47.8C27,10,10,27,10,47.8v160.5C10,229,27,246,47.8,246H161l0,0c0,0,0,0,0,0c3.9,0,7.1-3.2,7.1-7.1c0-3.9-3.2-7.1-7.1-7.1c0,0,0,0,0,0l0,0H47.8c-13,0-23.6-10.6-23.6-23.6V47.8c0-13,10.6-23.6,23.6-23.6h160.5c13,0,23.6,10.6,23.6,23.6v112.6c0,0.1,0,0.1,0,0.2c0,3.9,3.2,7.1,7.1,7.1c3.9,0,7.1-3.2,7.1-7.1c0,0,0,0,0-0.1h0.1V47.8L246,47.8z"/><path fill="#000000" d="M238.7,187.6h-36.1v-36.1c0-3.9-3.2-7.1-7.1-7.1s-7.1,3.2-7.1,7.1v36.1h-36.1c-3.9,0-7.1,3.2-7.1,7.1c0,3.9,3.2,7.1,7.1,7.1h36.1v36.1c0,3.9,3.2,7.1,7.1,7.1s7.1-3.2,7.1-7.1v-36.1h36.1c3.9,0,7.1-3.2,7.1-7.1C245.7,190.8,242.6,187.6,238.7,187.6z"/></g></g>
</svg>